# xmcd
#
# Track frame offsets: 
#        150
#        13578
#        27919
#        45539
#        63773
#        81662
#        93579
#        106572
#        118573
#        133486
#        147098
#        158717
#        174090
#        186809
#        199022
#        211174
#        223652
#        236778
#        249122
#        262062
#        274569
#        285454
#        298991
#        311696
#        323909
#        336933
#
# Disc length: 4659 seconds
#
# Revision: 1
# Processed by: cddbd v1.5.2PL0 Copyright (c) Steve Scherf et al.
# Submitted via: ExactAudioCopyFreeDBPlugin 1.0
#
DISCID=7f12311a
DTITLE=Ray Price And The Cherokee Cowboys - The Honky Tonk Years - 195
DTITLE=0-1966 - CD06
DYEAR=2002
DGENRE=Country
TTITLE0=The Old Rugged Cross
TTITLE1=In The Garden
TTITLE2=How Big Is God
TTITLE3=Until Then
TTITLE4=Help Through My Unbelief
TTITLE5=When I Take My Vacation In Heaven
TTITLE6=Faith
TTITLE7=Rock Of Ages
TTITLE8=Softly And Tenderly
TTITLE9=When The Roll Is Called Up Yonder
TTITLE10=Just As I Am
TTITLE11=Where He Leads Me (I Will Follow)
TTITLE12=Now The Day Is Over
TTITLE13=I Can't Run Away From Myself
TTITLE14=I Wish I Could Fall In Love Today
TTITLE15=Heart Over Mind
TTITLE16=The Twenty-Fourth Hour
TTITLE17=Walkin' Slow (And Thinking 'Bout Her)
TTITLE18=Soft Rain
TTITLE19=Here We Are Again
TTITLE20=You're Stronger Than Me
TTITLE21=This Cold War With You
TTITLE22=Soft Rain
TTITLE23=Imagination's A Wonderful Thing
TTITLE24=Walking Slow (And Thinking 'Bout Her)
TTITLE25=Soft Rain
EXTD=
EXTT0=
EXTT1=
EXTT2=
EXTT3=
EXTT4=
EXTT5=
EXTT6=
EXTT7=
EXTT8=
EXTT9=
EXTT10=
EXTT11=
EXTT12=
EXTT13=
EXTT14=
EXTT15=
EXTT16=
EXTT17=
EXTT18=
EXTT19=
EXTT20=
EXTT21=
EXTT22=
EXTT23=
EXTT24=
EXTT25=
PLAYORDER=
